<mxfile host="app.diagrams.net" modified="2021-05-31T03:39:25.722Z" agent="5.0 (Macintosh; Intel Mac OS X 10_15_7) AppleWebKit/537.36 (KHTML, like Gecko) Chrome/90.0.4430.212 Safari/537.36" etag="LGEUIfm9u3nXRs_MHirZ" version="14.7.2" type="github">
  <diagram id="iqiv3-eUTk3-3cMOA62e" name="Page-1">
    <mxGraphModel dx="533" dy="310" grid="1" gridSize="10" guides="1" tooltips="1" connect="1" arrows="1" fold="1" page="1" pageScale="1" pageWidth="827" pageHeight="1169" math="0" shadow="0">
      <root>
        <mxCell id="0" />
        <mxCell id="1" parent="0" />
        <mxCell id="ify4IsPZyBRffTTEuYDL-7" style="edgeStyle=orthogonalEdgeStyle;rounded=0;orthogonalLoop=1;jettySize=auto;html=1;exitX=0.5;exitY=1;exitDx=0;exitDy=0;entryX=0.5;entryY=0;entryDx=0;entryDy=0;" parent="1" source="ify4IsPZyBRffTTEuYDL-1" edge="1">
          <mxGeometry relative="1" as="geometry">
            <mxPoint x="424.5" y="170" as="targetPoint" />
          </mxGeometry>
        </mxCell>
        <mxCell id="ify4IsPZyBRffTTEuYDL-1" value="START" style="ellipse;whiteSpace=wrap;html=1;" parent="1" vertex="1">
          <mxGeometry x="379.5" y="110" width="90" height="40" as="geometry" />
        </mxCell>
        <mxCell id="rNi20Mrn_riKUZEto9K5-15" style="edgeStyle=orthogonalEdgeStyle;rounded=0;orthogonalLoop=1;jettySize=auto;html=1;entryX=0.5;entryY=0;entryDx=0;entryDy=0;" edge="1" parent="1" source="ify4IsPZyBRffTTEuYDL-18" target="rNi20Mrn_riKUZEto9K5-14">
          <mxGeometry relative="1" as="geometry" />
        </mxCell>
        <mxCell id="ify4IsPZyBRffTTEuYDL-18" value="Admin memproses pembayaran dan cetak struk" style="rounded=0;whiteSpace=wrap;html=1;" parent="1" vertex="1">
          <mxGeometry x="319" y="550" width="211" height="40" as="geometry" />
        </mxCell>
        <mxCell id="ify4IsPZyBRffTTEuYDL-27" style="edgeStyle=orthogonalEdgeStyle;rounded=0;orthogonalLoop=1;jettySize=auto;html=1;entryX=0.5;entryY=0;entryDx=0;entryDy=0;" parent="1" source="ify4IsPZyBRffTTEuYDL-22" target="ify4IsPZyBRffTTEuYDL-24" edge="1">
          <mxGeometry relative="1" as="geometry" />
        </mxCell>
        <mxCell id="ify4IsPZyBRffTTEuYDL-22" value="Pelanggan datang di toko" style="shape=parallelogram;perimeter=parallelogramPerimeter;whiteSpace=wrap;html=1;fixedSize=1;" parent="1" vertex="1">
          <mxGeometry x="319.5" y="170" width="211" height="40" as="geometry" />
        </mxCell>
        <mxCell id="ify4IsPZyBRffTTEuYDL-28" style="edgeStyle=orthogonalEdgeStyle;rounded=0;orthogonalLoop=1;jettySize=auto;html=1;entryX=0.5;entryY=0;entryDx=0;entryDy=0;" parent="1" source="ify4IsPZyBRffTTEuYDL-24" target="ify4IsPZyBRffTTEuYDL-25" edge="1">
          <mxGeometry relative="1" as="geometry" />
        </mxCell>
        <mxCell id="ify4IsPZyBRffTTEuYDL-24" value="Pelanggan memlilih produk&amp;nbsp;" style="rounded=0;whiteSpace=wrap;html=1;" parent="1" vertex="1">
          <mxGeometry x="319" y="240" width="211" height="40" as="geometry" />
        </mxCell>
        <mxCell id="rNi20Mrn_riKUZEto9K5-5" style="edgeStyle=orthogonalEdgeStyle;rounded=0;orthogonalLoop=1;jettySize=auto;html=1;exitX=0.5;exitY=1;exitDx=0;exitDy=0;" edge="1" parent="1" source="ify4IsPZyBRffTTEuYDL-25">
          <mxGeometry relative="1" as="geometry">
            <mxPoint x="425" y="370" as="targetPoint" />
          </mxGeometry>
        </mxCell>
        <mxCell id="ify4IsPZyBRffTTEuYDL-25" value="pelayan mengantar produk ke kasir" style="rounded=0;whiteSpace=wrap;html=1;" parent="1" vertex="1">
          <mxGeometry x="319" y="310" width="211" height="40" as="geometry" />
        </mxCell>
        <mxCell id="ify4IsPZyBRffTTEuYDL-33" style="edgeStyle=orthogonalEdgeStyle;rounded=0;orthogonalLoop=1;jettySize=auto;html=1;entryX=0.5;entryY=0;entryDx=0;entryDy=0;" parent="1" target="ify4IsPZyBRffTTEuYDL-32" edge="1">
          <mxGeometry relative="1" as="geometry">
            <mxPoint x="437.5" y="660" as="sourcePoint" />
          </mxGeometry>
        </mxCell>
        <mxCell id="ify4IsPZyBRffTTEuYDL-32" value="END" style="ellipse;whiteSpace=wrap;html=1;" parent="1" vertex="1">
          <mxGeometry x="377" y="680" width="95" height="40" as="geometry" />
        </mxCell>
        <mxCell id="rNi20Mrn_riKUZEto9K5-8" style="edgeStyle=orthogonalEdgeStyle;rounded=0;orthogonalLoop=1;jettySize=auto;html=1;entryX=0;entryY=0.5;entryDx=0;entryDy=0;exitX=0;exitY=0.5;exitDx=0;exitDy=0;" edge="1" parent="1" source="rNi20Mrn_riKUZEto9K5-3" target="ify4IsPZyBRffTTEuYDL-24">
          <mxGeometry relative="1" as="geometry">
            <Array as="points">
              <mxPoint x="299" y="480" />
              <mxPoint x="299" y="260" />
            </Array>
          </mxGeometry>
        </mxCell>
        <mxCell id="rNi20Mrn_riKUZEto9K5-13" style="edgeStyle=orthogonalEdgeStyle;rounded=0;orthogonalLoop=1;jettySize=auto;html=1;entryX=0.5;entryY=0;entryDx=0;entryDy=0;" edge="1" parent="1" source="rNi20Mrn_riKUZEto9K5-3" target="ify4IsPZyBRffTTEuYDL-18">
          <mxGeometry relative="1" as="geometry" />
        </mxCell>
        <mxCell id="rNi20Mrn_riKUZEto9K5-3" value="&lt;font style=&quot;font-size: 11px&quot;&gt;&lt;br&gt;pesanan sudah sesuai&lt;br&gt;dan tidak ingin membeli&lt;br&gt;lagi?&lt;/font&gt;" style="rhombus;whiteSpace=wrap;html=1;" vertex="1" parent="1">
          <mxGeometry x="340" y="430" width="170" height="100" as="geometry" />
        </mxCell>
        <mxCell id="rNi20Mrn_riKUZEto9K5-6" style="edgeStyle=orthogonalEdgeStyle;rounded=0;orthogonalLoop=1;jettySize=auto;html=1;" edge="1" parent="1" source="rNi20Mrn_riKUZEto9K5-4">
          <mxGeometry relative="1" as="geometry">
            <mxPoint x="425" y="430" as="targetPoint" />
          </mxGeometry>
        </mxCell>
        <mxCell id="rNi20Mrn_riKUZEto9K5-4" value="Pelanggan ke kasir untuk membayar" style="rounded=0;whiteSpace=wrap;html=1;" vertex="1" parent="1">
          <mxGeometry x="319" y="370" width="211" height="30" as="geometry" />
        </mxCell>
        <mxCell id="rNi20Mrn_riKUZEto9K5-9" value="T" style="text;html=1;align=center;verticalAlign=middle;resizable=0;points=[];autosize=1;strokeColor=none;" vertex="1" parent="1">
          <mxGeometry x="340" y="450" width="20" height="20" as="geometry" />
        </mxCell>
        <mxCell id="rNi20Mrn_riKUZEto9K5-11" value="Y" style="text;html=1;align=center;verticalAlign=middle;resizable=0;points=[];autosize=1;strokeColor=none;" vertex="1" parent="1">
          <mxGeometry x="430" y="530" width="20" height="20" as="geometry" />
        </mxCell>
        <mxCell id="rNi20Mrn_riKUZEto9K5-14" value="Pelanggan menerima Produk" style="shape=parallelogram;perimeter=parallelogramPerimeter;whiteSpace=wrap;html=1;fixedSize=1;" vertex="1" parent="1">
          <mxGeometry x="319" y="620" width="211" height="40" as="geometry" />
        </mxCell>
      </root>
    </mxGraphModel>
  </diagram>
</mxfile>
